<svg width="778" height="320" viewBox="0 0 778 320" fill="none" xmlns="http://www.w3.org/2000/svg">
<path d="M228.593 58.76C233.009 58.76 236.849 60.392 240.113 63.656C243.377 66.92 245.009 70.76 245.009 75.176V252.584C245.009 257 243.377 260.84 240.113 264.104C236.849 267.368 233.009 269 228.593 269H207.569C203.153 269 199.313 267.368 196.049 264.104C192.785 260.84 191.153 257 191.153 252.584V154.088C191.153 153.896 191.057 153.8 190.865 153.8C190.673 153.8 190.577 153.896 190.577 154.088L169.553 210.536C167.825 215.144 164.945 218.888 160.913 221.768C156.881 224.456 152.369 225.8 147.377 225.8H134.129C129.137 225.8 124.625 224.456 120.593 221.768C116.561 218.888 113.681 215.144 111.953 210.536L90.929 154.088C90.929 153.896 90.833 153.8 90.641 153.8C90.449 153.8 90.353 153.896 90.353 154.088V252.584C90.353 257 88.721 260.84 85.457 264.104C82.193 267.368 78.353 269 73.937 269H54.065C49.649 269 45.809 267.368 42.545 264.104C39.281 260.84 37.649 257 37.649 252.584V75.176C37.649 70.76 39.281 66.92 42.545 63.656C45.809 60.392 49.649 58.76 54.065 58.76H79.697C84.689 58.76 89.201 60.2 93.233 63.08C97.265 65.768 100.049 69.416 101.585 74.024L140.465 182.312C140.465 182.504 140.561 182.6 140.753 182.6C140.945 182.6 141.041 182.504 141.041 182.312L179.921 74.024C181.457 69.416 184.241 65.768 188.273 63.08C192.305 60.2 196.817 58.76 201.809 58.76H228.593ZM336.942 58.76C341.358 58.76 345.198 60.392 348.462 63.656C351.726 66.92 353.358 70.76 353.358 75.176V252.584C353.358 257 351.726 260.84 348.462 264.104C345.198 267.368 341.358 269 336.942 269H306.414C301.998 269 298.158 267.368 294.894 264.104C291.63 260.84 289.998 257 289.998 252.584V75.176C289.998 70.76 291.63 66.92 294.894 63.656C298.158 60.392 301.998 58.76 306.414 58.76H336.942ZM515.14 164.744L557.476 254.312C559.204 257.768 559.012 261.128 556.9 264.392C554.788 267.464 551.812 269 547.972 269H516.868C512.068 269 507.652 267.56 503.62 264.68C499.78 261.8 496.996 258.056 495.268 253.448L474.82 194.408C474.82 194.216 474.724 194.12 474.532 194.12C474.34 194.12 474.244 194.216 474.244 194.408L453.796 253.448C452.26 258.056 449.476 261.8 445.444 264.68C441.604 267.56 437.188 269 432.196 269H402.244C398.596 269 395.716 267.464 393.604 264.392C391.492 261.128 391.204 257.768 392.74 254.312L435.076 164.744C435.652 163.208 435.652 161.672 435.076 160.136L394.18 73.448C392.644 69.992 392.932 66.728 395.044 63.656C397.156 60.392 400.036 58.76 403.684 58.76H433.348C438.34 58.76 442.852 60.2 446.884 63.08C450.916 65.768 453.7 69.416 455.236 74.024L475.396 130.472C475.396 130.664 475.492 130.76 475.684 130.76C475.876 130.76 475.972 130.664 475.972 130.472L496.132 74.024C497.668 69.416 500.452 65.768 504.484 63.08C508.708 60.2 513.22 58.76 518.02 58.76H546.531C550.372 58.76 553.348 60.392 555.46 63.656C557.572 66.728 557.764 69.992 556.036 73.448L515.14 160.136C514.564 161.672 514.564 163.208 515.14 164.744Z" fill="black"/>
<path d="M661.743 153.8C671.535 153.8 679.215 151.4 684.783 146.6C690.543 141.608 693.423 134.888 693.423 126.44C693.423 108.2 682.863 99.08 661.743 99.08C656.943 99.08 652.527 99.368 648.495 99.944C646.767 100.328 645.903 101.384 645.903 103.112V151.208C645.903 152.936 646.767 153.8 648.495 153.8H661.743ZM736.047 211.4L751.311 253.736C752.655 257.576 752.175 261.128 749.871 264.392C747.567 267.464 744.399 269 740.367 269H714.159C709.167 269 704.655 267.56 700.623 264.68C696.591 261.8 693.903 258.056 692.559 253.448L679.887 214.28C677.775 207.56 675.087 202.76 671.823 199.88C668.559 197 664.239 195.56 658.863 195.56H648.495C646.767 195.56 645.903 196.424 645.903 198.152V252.584C645.903 257 644.271 260.84 641.007 264.104C637.743 267.368 633.903 269 629.487 269H606.159C601.743 269 597.903 267.368 594.639 264.104C591.375 260.84 589.743 257 589.743 252.584V76.616C589.743 72.008 591.183 67.976 594.063 64.52C597.135 60.872 600.975 58.856 605.583 58.472C624.399 56.744 644.079 55.88 664.623 55.88C722.223 55.88 751.023 77.48 751.023 120.68C751.023 132.776 747.279 144.008 739.791 154.376C732.495 164.744 722.895 172.136 710.991 176.552C710.799 176.552 710.703 176.648 710.703 176.84C710.703 177.224 710.799 177.416 710.991 177.416C716.751 180.68 721.455 184.808 725.103 189.8C728.943 194.792 732.591 201.992 736.047 211.4Z" fill="#34C759"/>
</svg>
